
Recognize 2012 VODRip X264 AC3-MATA
 
http://www.imdb.com/title/tt2175098/

Video
ID                                       : 1
Format                                   : AVC
Format/Info                              : Advanced Video Codec
Format profile                           : Main@L3.0
Format settings, CABAC                   : Yes
Format settings, ReFrames                : 4 frames
Codec ID                                 : V_MPEG4/ISO/AVC
Duration                                 : 1h 32mn
Bit rate                                 : 1 000 Kbps
Width                                    : 720 pixels
Height                                   : 400 pixels
Display aspect ratio                     : 16:9
Frame rate mode                          : Variable
Frame rate                               : 23.976 fps
Color space                              : YUV
Chroma subsampling                       : 4:2:0
Bit depth                                : 8 bits
Scan type                                : Progressive
Bits/(Pixel*Frame)                       : 0.145
Stream size                              : 647 MiB (82%)
Writing library                          : x264 core 125

Audio
ID                                       : 2
Format                                   : AC-3
Format/Info                              : Audio Coding 3
Format profile                           : Dolby Digital
Mode extension                           : CM (complete main)
Codec ID                                 : A_AC3
Duration                                 : 1h 32mn
Bit rate mode                            : Constant
Bit rate                                 : 192 Kbps
Channel(s)                               : 2 channels
Channel positions                        : Front: L R
Sampling rate                            : 48.0 KHz
Bit depth                                : 16 bits
Compression mode                         : Lossy
Stream size                              : 127 MiB (16%)

Cast: One Way Boobe, Big sam of the Eastside Boys, City Boys

Plot: Derrill Davis aka Dee Dee (played by T. Miles) lives the life as a professional used car salesman by day and one of Atlanta's most deadly and feared undercover street gangsters by night... 


Screens 
http://img23.imageshack.us/img23/455/60534739.png 
http://img42.imageshack.us/img42/6708/23391190.png 
http://img855.imageshack.us/img855/3499/80282304.png 
http://img341.imageshack.us/img341/5998/16484050.png
